<?xml version="1.0" encoding="UTF-8"?>
<svg version="1.1" xmlns="http://www.w3.org/2000/svg" width="1536" height="1024">
<path d="M0 0 C506.88 0 1013.76 0 1536 0 C1536 337.92 1536 675.84 1536 1024 C1029.12 1024 522.24 1024 0 1024 C0 686.08 0 348.16 0 0 Z " fill="#0D0D0D" transform="translate(0,0)"/>
<path d="M0 0 C4.75883727 0.01592368 9.51747497 0.00593301 14.2763176 -0.0037384 C51.06869253 -0.06318136 88.40019664 0.28638147 124.78088379 6.44952393 C125.76008789 6.6114624 126.73929199 6.77340088 127.74816895 6.94024658 C166.73637482 13.55950147 202.55602384 30.38776385 235.49377441 51.95245361 C257.13160925 66.14926268 257.13160925 66.14926268 280.51013184 77.10113525 C289.41184772 80.52108691 297.6699238 84.15546575 302.12854004 93.17608643 C303.27976516 96.56410255 304.08311787 99.94760612 304.78088379 103.44952393 C304.95313477 104.27726318 305.12538574 105.10500244 305.30285645 105.95782471 C308.16542497 119.83142401 309.96137567 132.94557596 309.96838379 147.13702393 C309.98062988 148.42286377 309.99287598 149.70870361 310.00549316 151.0335083 C310.02480819 163.77498483 309.61276857 174.9573522 301.78088379 185.44952393 C301.12088379 186.10952393 300.46088379 186.76952393 299.78088379 187.44952393 C298.79088379 187.44952393 297.80088379 187.44952393 296.78088379 187.44952393 C296.80183105 186.40312744 296.82277832 185.35673096 296.84436035 184.27862549 C297.58087459 156.58341125 297.58087459 156.58341125 292.78088379 129.44952393 C292.36661978 127.88872431 291.9538862 126.32751778 291.54260254 124.76593018 C287.7831327 110.63871515 287.7831327 110.63871515 278.78088379 99.44952393 C275.66441278 98.71646095 275.66441278 98.71646095 272.21838379 98.85577393 C271.57177292 98.85446472 270.92516205 98.85315552 270.25895691 98.85180664 C268.09842146 98.85695914 265.94086833 98.90163344 263.78088379 98.94952393 C262.23246828 98.96791547 260.68404676 98.98580635 259.13562012 99.00323486 C227.19794194 99.49418378 195.26936938 102.39082204 163.56292725 106.12268066 C160.5706753 106.47421988 157.57788629 106.8209732 154.58508301 107.16778564 C127.81406338 110.28650366 101.14083065 113.8479898 74.53088379 118.13702393 C73.37268127 118.32316254 72.21447876 118.50930115 71.0211792 118.70108032 C59.88880748 120.49991292 48.7743884 122.37873546 37.70666504 124.54327393 C36.92325745 124.69386765 36.13984985 124.84446136 35.33270264 124.99961853 C30.14528305 126.04328416 25.2135409 127.52718954 20.21838379 129.26202393 C13.71530997 131.47275658 8.50472874 131.75895896 1.78088379 130.44952393 C-15.99772119 127.51144325 -33.01002975 129.04444069 -48.21911621 139.44952393 C-77.70262662 163.26889938 -88.33161964 199.04841969 -92.21911621 235.44952393 C-92.53475983 239.1751128 -92.75942954 242.90090808 -92.91052246 246.63702393 C-93.32266149 250.39322771 -94.19246585 253.34074154 -96.78161621 256.13702393 C-105.20709254 260.67381887 -115.26064848 259.74143778 -124.53942871 259.71514893 C-126.16994319 259.71731243 -127.80045692 259.7201316 -129.43096924 259.72355652 C-133.82080327 259.72927492 -138.21048983 259.72053558 -142.60030365 259.70727158 C-145.35786522 259.6994851 -148.11541611 259.69492906 -150.87298584 259.69113159 C-198.6544754 259.61483734 -246.37232213 258.30789698 -294.09411621 255.94952393 C-295.30404236 255.88985443 -296.51396851 255.83018494 -297.76055908 255.76870728 C-311.08603361 255.10008125 -324.38545311 254.27494645 -337.67904663 253.12835693 C-344.43957434 252.55217519 -351.18912063 252.19875398 -357.96911621 251.94952393 C-381.39789771 250.9722184 -381.39789771 250.9722184 -387.21911621 245.44952393 C-394.46454067 235.78895798 -393.65683599 222.06141218 -394.2244873 210.45025635 C-394.34376419 208.01919878 -394.47395831 205.58891167 -394.60583496 203.1585083 C-396.11279554 174.57080428 -396.11279554 174.57080428 -390.19958496 166.79327393 C-387.80591533 162.75189089 -387.33156185 159.47804437 -386.78161621 154.88702393 C-384.57744743 139.89989567 -380.00286846 128.92370362 -367.57067871 119.66827393 C-363.54548457 116.78244464 -359.40202117 114.09945409 -355.21911621 111.44952393 C-354.14145996 110.74956299 -353.06380371 110.04960205 -351.95349121 109.32843018 C-335.92069106 99.51525077 -317.37993603 93.08535591 -299.21911621 88.44952393 C-298.46372559 88.2505249 -297.70833496 88.05152588 -296.93005371 87.84649658 C-286.07647375 85.0071541 -275.14650693 82.80274234 -264.09411621 80.88702393 C-262.87071533 80.67384521 -261.64731445 80.4606665 -260.38684082 80.24102783 C-254.26725471 79.2041904 -248.16801082 78.29865234 -241.99645996 77.63311768 C-227.95553921 76.06065941 -217.97107806 73.4463298 -206.5213623 65.10479736 C-202.21040751 62.00529858 -197.73194068 59.15592597 -193.28161621 56.26202393 C-192.33149658 55.63707031 -191.38137695 55.0121167 -190.40246582 54.3682251 C-179.59867758 47.29598786 -168.48567302 40.76272351 -157.32922363 34.26593018 C-155.25368929 33.05374904 -153.18351027 31.83235204 -151.11877441 30.60186768 C-144.81256663 26.86006653 -138.46712866 23.46213522 -131.78161621 20.44952393 C-130.37553101 19.81506348 -130.37553101 19.81506348 -128.94104004 19.16778564 C-119.25210348 14.88807963 -109.37509203 11.43817497 -99.21911621 8.44952393 C-98.20397949 8.14474121 -98.20397949 8.14474121 -97.16833496 7.83380127 C-65.76793117 -1.33530849 -32.33212705 -0.15305344 0 0 Z " fill="#6E30CD" transform="translate(805.2191162109375,324.55047607421875)"/>
<path d="M0 0 C-15.00495123 10.32668339 -30.57992563 19.13010526 -47 27 C-47.84997559 27.40976074 -48.69995117 27.81952148 -49.57568359 28.24169922 C-66.03385883 36.12723814 -82.85762665 42.75878295 -100 49 C-100.92796387 49.34015137 -101.85592773 49.68030273 -102.81201172 50.03076172 C-137.19690576 62.58147767 -172.76917175 72.1175185 -208.44677734 80.18212891 C-213.06681219 81.24555592 -217.66772176 82.3805084 -222.27026367 83.5168457 C-234.59298085 86.55580949 -246.95441951 89.30088403 -259.37188721 91.91928101 C-276.38222328 95.50730155 -293.24247243 99.34881657 -310 104 C-311.15628906 104.3182373 -312.31257813 104.63647461 -313.50390625 104.96435547 C-348.93296627 114.75320983 -386.85574859 125.6645919 -416.26953125 148.671875 C-422.4960198 151.70049604 -429.85039774 149.8727736 -436.3203125 148.27734375 C-437.08841751 148.09676422 -437.85652252 147.91618469 -438.64790344 147.73013306 C-441.14253201 147.14170506 -443.63365081 146.53964624 -446.125 145.9375 C-447.88263672 145.52031806 -449.64053465 145.10423523 -451.39868164 144.68920898 C-454.06618962 144.05941699 -456.73351689 143.42896251 -459.39997864 142.79475403 C-465.84835141 141.2621939 -472.309157 139.80127265 -478.78100586 138.37084961 C-493.84651518 135.04028265 -508.80390855 131.33946685 -523.76220703 127.56201172 C-533.43041915 125.12327549 -543.1080677 122.78192354 -552.84423828 120.62719727 C-563.9952618 118.14259233 -575.0247958 115.16675852 -586 112 C-571.40140419 94.64094243 -529.96522042 89.14305352 -509 85 C-507.33958165 84.65490453 -505.67940492 84.30864339 -504.01953125 83.9609375 C-474.66206947 77.95449601 -444.77277573 74.19972169 -415 71 C-413.84622864 70.87582703 -412.69245728 70.75165405 -411.50372314 70.62371826 C-386.72979409 67.96044842 -361.95049644 65.34760457 -337.16796875 62.765625 C-311.8233688 60.12449206 -286.57036614 57.15697424 -261.35295105 53.4903717 C-254.10634425 52.43715131 -246.8550393 51.43490067 -239.59521484 50.47583008 C-233.85179725 49.71568334 -228.11262406 48.92760406 -222.375 48.125 C-221.28316406 47.97675781 -220.19132812 47.82851563 -219.06640625 47.67578125 C-210.1595246 46.42372817 -201.35631641 44.77106779 -192.52783203 43.06152344 C-187.09354991 42.01133604 -181.65041511 41.01535763 -176.203125 40.03515625 C-175.31031326 39.8742601 -174.41750153 39.71336395 -173.49763489 39.54759216 C-171.67752086 39.21973958 -169.857376 38.89205816 -168.03720093 38.56454468 C-152.12027455 35.69750768 -136.22997302 32.75148141 -120.38916016 29.48632812 C-118.16179963 29.0329353 -115.93201717 28.59756937 -113.69921875 28.171875 C-105.74764125 26.64491221 -97.97663316 24.73366018 -90.17041016 22.58886719 C-86.01849256 21.46238516 -81.85169303 20.39252382 -77.6875 19.3125 C-67.0483488 16.54541907 -56.42109972 13.73418597 -45.79562378 10.91516113 C-35.53165044 8.19210986 -25.26311381 5.48839678 -14.9765625 2.8515625 C-11.42767263 1.93449463 -7.9776651 0.99216275 -4.515625 -0.22265625 C-2 -1 -2 -1 0 0 Z " fill="#6E30CD" transform="translate(1124,577)"/>
<path d="M0 0 C4.12567575 0.00519761 8.25134433 0.000331 12.3770206 -0.00277233 C19.30274213 -0.00637599 26.22842054 -0.00171207 33.15413547 0.00790882 C41.05148131 0.01875592 48.94872349 0.01528024 56.84606677 0.00425601 C63.73379016 -0.00495794 70.62148318 -0.00603399 77.50921077 -0.00086665 C81.57548108 0.00218113 85.64170355 0.00287088 89.70797038 -0.00393963 C112.25242287 -0.03669595 134.65150542 0.79074747 157.14803195 2.26865101 C154.24218283 5.35906742 150.98198344 7.10007287 147.21053195 8.95615101 C146.1580527 9.47507923 146.1580527 9.47507923 145.08431125 10.00449085 C139.61798468 12.64950686 134.07893928 15.09043552 128.46053195 17.39365101 C127.74582736 17.69359974 127.03112277 17.99354847 126.29476047 18.30258656 C109.42071274 25.03741176 91.45633589 28.68732121 73.71053195 32.26865101 C71.58638501 32.70318772 69.46236292 33.1383351 67.33846164 33.57407093 C62.19058893 34.62810853 57.04083438 35.6725675 51.89028049 36.71341419 C48.71203439 37.35692962 45.53510499 38.00672717 42.35837436 38.65767384 C28.48432275 41.49825382 14.58960897 44.15934668 0.62752414 46.53354359 C-14.42949004 49.13502319 -26.05261021 51.91721569 -36.85978055 63.24521351 C-38.91360215 65.33125192 -41.02599901 67.22494975 -43.28946805 69.08115101 C-43.94817899 69.62384632 -44.60688993 70.16654163 -45.2855618 70.72568226 C-52.84176751 75.26860655 -60.40880706 75.72394645 -69.05509305 75.70224476 C-70.81945203 75.71241879 -70.81945203 75.71241879 -72.61945462 75.72279835 C-76.44721611 75.73630145 -80.27423014 75.72361566 -84.10196805 75.70615101 C-85.40555264 75.70443897 -86.70913724 75.70272694 -88.0522244 75.70096302 C-106.0024898 75.66053635 -123.84324663 75.04478191 -141.72696805 73.39365101 C-142.67817533 73.30679035 -143.6293826 73.2199297 -144.60941434 73.1304369 C-147.27260055 72.88033054 -149.93352411 72.6148292 -152.59415555 72.33896351 C-153.36538754 72.26175571 -154.13661954 72.18454792 -154.9312222 72.1050005 C-158.84654349 71.66584084 -162.34934692 71.12940545 -165.85196805 69.26865101 C-166.9261868 66.76474476 -166.9261868 66.76474476 -167.53946805 63.70615101 C-167.76505399 62.62978382 -167.99063993 61.55341663 -168.2230618 60.44443226 C-168.53437039 58.87242054 -168.53437039 58.87242054 -168.85196805 57.26865101 C-169.26751062 55.64336319 -169.6840363 54.0183261 -170.10196805 52.39365101 C-171.12004628 47.61386002 -171.03872796 44.10465617 -168.3168118 39.89365101 C-165.10954617 36.47798936 -161.684299 34.63277868 -157.53946805 32.51865101 C-156.70334989 32.0881847 -155.86723172 31.65771839 -155.00577664 31.21420765 C-122.66288418 14.95336702 -85.00267944 3.60363977 -48.80533719 1.16025257 C-46.9347481 1.0339213 -46.9347481 1.0339213 -45.02636933 0.90503788 C-30.02446171 -0.01824538 -15.0251732 -0.02501871 0 0 Z " fill="#0D0D0E" transform="translate(608.851968050003,422.73134899139404)"/>
<path d="M0 0 C0.66 0 1.32 0 2 0 C0.66229838 3.51068171 -0.91004803 6.75595235 -2.6875 10.0625 C-11.2620433 27.16975956 -16.52734768 46.38627663 -19.0625 65.3125 C-20.51997917 75.33266926 -20.51997917 75.33266926 -24 79 C-26.95254259 80.37664562 -29.78622201 80.65381381 -33 81 C-33.68805222 81.07821487 -34.37610443 81.15642975 -35.08500671 81.23701477 C-67.54236182 84.68782809 -100.34929104 84.34747108 -132.94018555 84.31567383 C-138.09619878 84.31104275 -143.25197607 84.31798338 -148.40795898 84.33618164 C-190.34706081 84.48272293 -233.05764172 84.41031619 -274.5625 77.4375 C-275.35333984 77.31181641 -276.14417969 77.18613281 -276.95898438 77.05664062 C-280.07176349 76.55064845 -283.00306399 75.99897867 -286 75 C-285.68988132 69.10774504 -284.4986804 63.79541586 -282.6875 58.1875 C-282.48680908 57.54159912 -282.28611816 56.89569824 -282.0793457 56.23022461 C-280.74037803 52.24652343 -279.29499149 49.63216922 -276 47 C-273.11118941 46.03706314 -271.27577685 45.87122058 -268.2734375 45.8671875 C-267.33395264 45.86517334 -266.39446777 45.86315918 -265.42651367 45.86108398 C-264.41951416 45.86567627 -263.41251465 45.87026855 -262.375 45.875 C-260.80359253 45.87898804 -260.80359253 45.87898804 -259.20043945 45.88305664 C-252.16798174 45.92559275 -245.21446837 46.22700563 -238.19921875 46.71484375 C-233.70466889 46.99263386 -229.2079439 47.12937895 -224.70703125 47.25390625 C-223.58254829 47.28501747 -223.58254829 47.28501747 -222.43534851 47.3167572 C-218.62915476 47.41995061 -214.82286407 47.51631871 -211.01635742 47.60717773 C-209.58382036 47.64432021 -208.15128451 47.68150914 -206.71875 47.71875 C-205.44966797 47.74904297 -204.18058594 47.77933594 -202.87304688 47.81054688 C-200.05766319 47.94826358 -197.34573484 48.16724388 -194.55419922 48.49829102 C-187.75710526 49.29667552 -180.95428755 49.33830287 -174.1171875 49.4050293 C-172.45909833 49.42663254 -170.80112391 49.46076372 -169.14355469 49.50756836 C-158.51429293 49.80352779 -150.94876824 49.39375249 -142 43 C-140.63089232 42.14057277 -139.2587123 41.2860109 -137.8828125 40.4375 C-136.62992487 39.62543717 -135.37732127 38.81293597 -134.125 38 C-117.58908769 27.55925631 -101.44169059 24.47446933 -82.40530396 21.97994995 C-69.67567668 20.30136206 -56.97745956 18.44805959 -44.31558228 16.3163147 C-42.83853061 16.0679754 -41.3609821 15.82256936 -39.88290405 15.58041382 C-22.50453145 12.85801915 -22.50453145 12.85801915 -6.8125 5.375 C-5.93207031 4.78460938 -5.05164063 4.19421875 -4.14453125 3.5859375 C-1.93531768 2.03404251 -1.93531768 2.03404251 0 0 Z " fill="#0D0D0E" transform="translate(710,478)"/>
<path d="M0 0 C14.27690796 11.34067354 22.02345786 29.3797396 25 47 C25.41411088 51.92570466 25.47715931 56.80876727 25.4375 61.75 C25.43065186 63.06532715 25.42380371 64.3806543 25.41674805 65.73583984 C25.04243298 88.47232587 17.6769902 108.87326155 1.734375 125.359375 C-6.5009188 133.31231587 -16.06982807 136.58448578 -27.4375 136.4375 C-28.27007324 136.42920166 -29.10264648 136.42090332 -29.96044922 136.41235352 C-40.87231554 136.11250661 -47.88676722 132.11047367 -56 125 C-56.90878906 124.24976563 -56.90878906 124.24976563 -57.8359375 123.484375 C-69.23938539 113.26771128 -74.86322112 96.76860992 -77 82 C-77.74823994 68.35935911 -78.26229103 54.11341959 -74 41 C-73.6596875 39.92363281 -73.319375 38.84726562 -72.96875 37.73828125 C-66.67238134 19.76385045 -54.64530599 3.40535362 -37.33203125 -5.01953125 C-24.60545626 -10.37023531 -11.02289382 -7.53904622 0 0 Z " fill="#6F30CD" transform="translate(809,482)"/>
<path d="M0 0 C1.68461573 0.00119871 3.36923213 0.00164351 5.05384827 0.00138855 C8.56239088 0.00293831 12.07082931 0.01110228 15.5793457 0.0246582 C19.99286895 0.04152916 24.4062784 0.0453826 28.81982994 0.04484749 C52.23896994 0.04551349 75.62864818 0.14291013 98.97265625 2.23046875 C95.84573832 5.40397019 92.64902693 8.46608273 89.36743164 11.48120117 C82.92691743 17.41025017 76.69281166 23.49482378 70.56640625 29.74609375 C69.23369721 31.10039556 67.90093299 32.45464307 66.56811523 33.80883789 C64.55799929 35.85220848 62.55295619 37.89953679 60.5617981 39.96139526 C58.66961169 41.9204785 56.7620679 43.86348746 54.8515625 45.8046875 C54.01298706 46.68673859 54.01298706 46.68673859 53.1574707 47.58660889 C47.32852457 53.45341921 40.02649735 57.0404173 31.70057297 57.35351658 C29.73715391 57.35213389 29.73715391 57.35213389 27.73406982 57.35072327 C26.63863479 57.3520049 26.63863479 57.3520049 25.52106977 57.35331243 C23.07359188 57.35495977 20.62618251 57.34945806 18.17871094 57.34399414 C16.42444867 57.34371208 14.67018628 57.34387037 12.91592407 57.34443665 C8.15183975 57.34472389 3.38778053 57.33883888 -1.37629795 57.33186269 C-6.35444067 57.32561708 -11.33258395 57.32502439 -16.31072998 57.32383728 C-25.73833282 57.32072754 -35.16592409 57.31251894 -44.59352183 57.30248779 C-55.32617787 57.2913156 -66.05883445 57.28581341 -76.79149485 57.28079236 C-98.87011761 57.27033604 -120.94872995 57.25274348 -143.02734375 57.23046875 C-139.83526302 53.98674717 -136.78202807 51.18954775 -132.9921875 48.6640625 C-132.02804932 48.01961182 -131.06391113 47.37516113 -130.07055664 46.71118164 C-129.04567139 46.03692139 -128.02078613 45.36266113 -126.96484375 44.66796875 C-125.89935303 43.96341553 -124.8338623 43.2588623 -123.73608398 42.53295898 C-114.00202528 36.1385282 -104.13340373 30.01860251 -94.02734375 24.23046875 C-92.95226562 23.61051025 -92.95226562 23.61051025 -91.85546875 22.97802734 C-77.18264088 14.59889161 -61.70289822 8.3627429 -45.27734375 4.35546875 C-44.4997168 4.16436523 -43.72208984 3.97326172 -42.92089844 3.77636719 C-28.7461465 0.56885659 -14.47007998 -0.06984741 0 0 Z " fill="#0D0D0E" transform="translate(757.02734375,347.76953125)"/>
<path d="M0 0 C2.98183403 1.71989744 5.48012389 3.66089761 8 6 C8.88945313 6.81017578 8.88945313 6.81017578 9.796875 7.63671875 C23.36457121 21.4745682 25.59888354 41.42419224 25.55297852 59.81445312 C25.13218623 80.96968458 18.19354718 100.00304216 3 115 C2.49855469 115.52335938 1.99710938 116.04671875 1.48046875 116.5859375 C-4.59510049 122.36385638 -12.80970971 124.2388177 -20.9375 124.625 C-31.33559394 124.28370589 -39.54567999 119.31216247 -46.96875 112.265625 C-59.18308068 98.64194847 -63.60394126 81.70095023 -63.4375 63.75 C-63.42847656 62.57268311 -63.41945313 61.39536621 -63.41015625 60.18237305 C-63.01801596 40.32073943 -57.2756605 21.81053783 -42.875 7.56640625 C-29.71618197 -4.1799843 -16.31667072 -7.35849856 0 0 Z " fill="#6F31CC" transform="translate(1063,456)"/>
<path d="M0 0 C1.96757636 1.3617407 3.92488897 2.73836327 5.875 4.125 C7.3069262 5.1333317 8.73924782 6.141102 10.171875 7.1484375 C13.78239681 9.69002953 17.38357246 12.24443738 20.97949219 14.80664062 C22.75333554 16.0403802 24.55816948 17.20280573 26.3828125 18.359375 C27.20523437 18.94203125 28.02765625 19.5246875 28.875 20.125 C28.875 20.785 28.875 21.445 28.875 22.125 C27.64523437 22.18558594 26.41546875 22.24617188 25.1484375 22.30859375 C23.51561573 22.39305005 21.88280373 22.47769547 20.25 22.5625 C19.44175781 22.60181641 18.63351562 22.64113281 17.80078125 22.68164062 C17.00800781 22.72353516 16.21523438 22.76542969 15.3984375 22.80859375 C14.67575684 22.84525146 13.95307617 22.88190918 13.20849609 22.91967773 C10.79164429 23.10045596 10.79164429 23.10045596 8.09521484 23.59985352 C4.35063296 24.21051278 0.60706047 24.54367884 -3.171875 24.84375 C-3.94194885 24.90655151 -4.71202271 24.96935303 -5.50543213 25.03405762 C-7.13584508 25.16636549 -8.76636157 25.29740293 -10.39697266 25.42724609 C-12.82615096 25.6211017 -15.25487709 25.81998531 -17.68359375 26.01953125 C-26.46690738 26.7317688 -35.24675437 27.31912976 -44.04678345 27.78004456 C-49.1400091 28.05276755 -54.18554282 28.47200635 -59.25 29.0625 C-67.86113349 29.99093109 -76.4800786 30.55518057 -85.125 31.0625 C-96.93200294 31.75781073 -108.71519599 32.62123958 -120.5 33.625 C-121.63391678 33.72125671 -121.63391678 33.72125671 -122.79074097 33.81945801 C-125.77898488 34.0732309 -128.76717792 34.32759073 -131.7552948 34.58285522 C-138.73118636 35.17852154 -145.70825537 35.75734441 -152.6875 36.3125 C-153.6966748 36.39628906 -154.70584961 36.48007812 -155.74560547 36.56640625 C-162.21803384 37.07499334 -168.63361069 37.2175195 -175.125 37.125 C-173.8696996 33.66813626 -172.45823579 30.9706598 -170.18359375 28.0859375 C-169.60464355 27.34625732 -169.02569336 26.60657715 -168.42919922 25.84448242 C-167.81318848 25.07080322 -167.19717773 24.29712402 -166.5625 23.5 C-165.92844238 22.69602783 -165.29438477 21.89205566 -164.64111328 21.0637207 C-162.80877794 18.74566959 -160.9678345 16.43470689 -159.125 14.125 C-158.29034618 13.06902497 -157.45570783 12.0130377 -156.62109375 10.95703125 C-113.40390361 -42.92517451 -55.14527561 -36.09101372 0 0 Z " fill="#0D0D0E" transform="translate(1003.125,377.875)"/>
<path d="M0 0 C7.39023473 4.27932564 11.34947359 9.7658485 15.1875 17.25 C15.52523437 17.90129883 15.86296875 18.55259766 16.2109375 19.22363281 C23.48334694 34.17329229 23.09270023 54.87724095 17.875 70.4375 C13.57947118 81.31019354 7.89942677 91.0857027 -3.1875 96 C-9.13819277 98.00812852 -13.70159027 98.27315853 -19.75 96.1875 C-30.21184754 90.76283831 -35.72444658 83.3211844 -39.34765625 72.125 C-39.73244141 70.7946875 -39.73244141 70.7946875 -40.125 69.4375 C-40.35058594 68.695 -40.57617188 67.9525 -40.80859375 67.1875 C-44.87407243 51.03773643 -42.66181091 32.85542698 -34.8515625 18.29296875 C-27.58813053 6.28036972 -15.25398203 -6.95795671 0 0 Z " fill="#0D0D0E" transform="translate(795.125,498.5625)"/>
<path d="M0 0 C7.05039292 2.77153377 12.15209241 8.23925835 15.4453125 14.94140625 C22.06990659 30.36724676 22.73464422 49.21309919 16.48828125 64.92578125 C12.38739657 73.39663754 7.99655892 79.36545075 -0.4375 83.8125 C-5.82231615 85.60743872 -9.86927166 85.72804938 -15.0625 83.4375 C-24.25659786 78.36918686 -28.1281879 69.10258312 -31.25 59.5625 C-35.34716879 44.43698362 -33.85373869 27.96956878 -26.3046875 14.14453125 C-20.28119112 4.24363451 -11.93250211 -2.3300152 0 0 Z " fill="#0D0D0E" transform="translate(1052,474)"/>
<path d="M0 0 C1 1 1 1 1.3125 4.5625 C1.23678641 9.23991763 0.01320784 13.36642584 -3 17 C-8.33303509 20.25274637 -13.83240311 21.15313229 -19.88671875 22.234375 C-21.4974099 22.53264694 -21.4974099 22.53264694 -23.14064026 22.83694458 C-26.65455494 23.48437518 -30.17082644 24.11774029 -33.6875 24.75 C-36.129281 25.19520534 -38.57101233 25.64068318 -41.01269531 26.08642578 C-61.88592267 29.87672603 -82.80328126 33.36127244 -103.76123047 36.64715576 C-106.59122265 37.09318043 -109.41972387 37.54817846 -112.24810791 38.00427246 C-115.24793637 38.48707727 -118.24898572 38.96213034 -121.25 39.4375 C-122.26739258 39.60169434 -123.28478516 39.76588867 -124.33300781 39.93505859 C-129.28986961 40.70488078 -133.98351222 41.17322126 -139 41 C-139.35394179 32.2825449 -139.59765626 25.98137021 -134.375 18.75 C-128.07312857 14.10651579 -119.64518427 13.24412885 -112.08984375 12.09765625 C-110.53994751 11.85366844 -110.53994751 11.85366844 -108.95874023 11.60475159 C-105.61959006 11.08211897 -102.27873256 10.57163622 -98.9375 10.0625 C-96.62897608 9.70564113 -94.32046377 9.34870711 -92.01196289 8.99169922 C-75.73092818 6.49132299 -59.44119105 4.22410641 -43.07470703 2.35839844 C-40.32557373 2.03795 -37.58300718 1.68781243 -34.83984375 1.3203125 C-23.37595084 -0.17344539 -11.54576322 -0.90785372 0 0 Z " fill="#6F31CD" transform="translate(988,526)"/>
<path d="M0 0 C-8.64589913 3.74383013 -17.1301157 3.40310106 -26.36157227 3.34057617 C-28.11657191 3.33972896 -29.87157262 3.34020688 -31.62657166 3.34190369 C-36.36978326 3.34276139 -41.11276542 3.32517216 -45.85592389 3.30418181 C-50.82068026 3.2853774 -55.78544239 3.28366161 -60.75022888 3.28010559 C-70.14229419 3.27079617 -79.53425424 3.24619733 -88.92627329 3.21605712 C-99.62275698 3.18247875 -110.31924581 3.16601846 -121.01576912 3.15097082 C-143.01057141 3.11964679 -165.00527906 3.06690778 -187 3 C-185.94084072 1.52212715 -185.94084072 1.52212715 -184 0 C-180.87775517 -0.36635017 -180.87775517 -0.36635017 -176.94654846 -0.35403442 C-176.22401868 -0.35589213 -175.5014889 -0.35774984 -174.75706428 -0.35966384 C-172.32942235 -0.36226919 -169.90241802 -0.34340081 -167.47485352 -0.32470703 C-165.73708226 -0.32222441 -163.99930867 -0.32107657 -162.26153564 -0.32116699 C-158.51607319 -0.3184584 -154.77080443 -0.30621621 -151.02539253 -0.28662491 C-145.10538186 -0.25565895 -139.18544574 -0.24533529 -133.2653656 -0.23776245 C-123.90265321 -0.22326166 -114.54004782 -0.19432028 -105.17739099 -0.15951526 C-88.40936746 -0.09764347 -71.6412801 -0.0600267 -54.87317604 -0.02792251 C-48.98594359 -0.01607748 -43.09877383 0.00212299 -37.21157658 0.02559257 C-33.55125922 0.03940938 -29.89093822 0.04926603 -26.23060608 0.05822754 C-24.53102944 0.06330135 -22.83145701 0.07013112 -21.13189507 0.07883072 C-18.81472875 0.09050202 -16.4976255 0.09602769 -14.18043518 0.10006714 C-12.88275994 0.10488539 -11.58508471 0.10970364 -10.24808598 0.11466789 C-7.13694742 0.11841787 -7.13694742 0.11841787 -4.7387228 -0.5687542 C-3 -1 -3 -1 0 0 Z " fill="#150634" transform="translate(801,402)"/>
<path d="M0 0 C1.98 0.99 1.98 0.99 4 2 C-1.00772474 3.62798606 -5.20433829 4.2481023 -10.52342224 4.24050903 C-11.24810843 4.24221788 -11.97279462 4.24392673 -12.719441 4.24568737 C-15.13003953 4.24896249 -17.54035516 4.23801153 -19.95092773 4.22705078 C-21.68592828 4.22648624 -23.4209293 4.22680407 -25.15592957 4.22793579 C-29.85375443 4.22850862 -34.55147675 4.21676553 -39.24927783 4.20278788 C-44.16333668 4.19026897 -49.077398 4.1891091 -53.99147034 4.18673706 C-63.29149285 4.18052571 -72.59146824 4.16411954 -81.89147002 4.14403808 C-92.48150889 4.12166837 -103.07155004 4.11068295 -113.66160667 4.10064721 C-135.4410974 4.07975302 -157.22054573 4.04458373 -179 4 C-178.67 3.01 -178.34 2.02 -178 1 C-119.26 1.33 -60.52 1.66 0 2 C0 1.34 0 0.68 0 0 Z " fill="#0B1303" transform="translate(797,399)"/>
<path d="M0 0 C3.70940536 0.01053186 7.41881863 0.01485907 11.12823486 0.01983643 C18.30924444 0.03032247 25.49021749 0.04721033 32.67120361 0.06866455 C32.67120361 1.05866455 32.67120361 2.04866455 32.67120361 3.06866455 C0.66120361 3.06866455 -31.34879639 3.06866455 -64.32879639 3.06866455 C-64.32879639 2.40866455 -64.32879639 1.74866455 -64.32879639 1.06866455 C-42.8772598 0.25364531 -21.46570222 -0.06783854 0 0 Z " fill="#7935DC" transform="translate(799.3287963867188,344.93133544921875)"/>
<path d="M0 0 C2.51622787 3.7743418 2.16314837 6.60221151 1.9765625 10.94921875 C1.95153656 11.72183548 1.92651062 12.49445221 1.90072632 13.29048157 C1.81859648 15.7566054 1.72198125 18.22191988 1.625 20.6875 C1.56675317 22.35999305 1.50945004 24.03251925 1.453125 25.70507812 C1.3130284 29.80385037 1.15993909 33.901956 1 38 C0.34 38 -0.32 38 -1 38 C-0.98839844 37.31035156 -0.97679687 36.62070312 -0.96484375 35.91015625 C-0.90657876 29.84227348 -1.21096052 24.01642604 -2 18 C-3.17125374 21.7513465 -3.22059865 25.49631612 -3.31640625 29.390625 C-3.33718735 30.09523865 -3.35796844 30.79985229 -3.37937927 31.52581787 C-3.44453837 33.76711681 -3.50360248 36.00852864 -3.5625 38.25 C-3.60571726 39.77344897 -3.64933257 41.29688671 -3.69335938 42.8203125 C-3.80018491 46.54675591 -3.90154639 50.27332494 -4 54 C-4.66 54 -5.32 54 -6 54 C-6.09888089 47.80701358 -6.17147486 41.61448668 -6.21972656 35.42089844 C-6.23984126 33.31404618 -6.26713667 31.20724975 -6.30175781 29.10058594 C-6.35028168 26.07212553 -6.37297016 23.04440322 -6.390625 20.015625 C-6.41127014 19.07382385 -6.43191528 18.13202271 -6.45318604 17.16168213 C-6.45544858 10.56696835 -6.45544858 10.56696835 -4.05371094 7.57714844 C-3.37598633 7.05668945 -2.69826172 6.53623047 -2 6 C-0.73215876 2.86649283 -0.73215876 2.86649283 0 0 Z " fill="#7433D7" transform="translate(1108,458)"/>
<path d="M0 0 C10.2484893 -0.04630033 20.4969538 -0.08185748 30.74552631 -0.10362434 C35.50413515 -0.1140703 40.26267253 -0.12824431 45.02124023 -0.15087891 C49.61183056 -0.17257834 54.20235208 -0.18456251 58.79298973 -0.18975449 C60.54611482 -0.19345546 62.29923606 -0.20068236 64.05233192 -0.21146011 C66.50412824 -0.22593655 68.95563866 -0.22797957 71.4074707 -0.22705078 C72.13539322 -0.23424133 72.86331573 -0.24143188 73.61329651 -0.24884033 C77.3058022 -0.233662 78.84010925 -0.10659383 82 2 C54.29260143 2.7536057 26.69735278 3.27247969 -1 2 C-0.67 1.34 -0.34 0.68 0 0 Z " fill="#100C1F" transform="translate(739,348)"/>
<path d="M0 0 C-1.00437207 2.73919656 -1.62824404 3.80379547 -4.25 5.1875 C-9.89246643 6.85459235 -15.35753683 7.14175422 -21.20849609 7.11352539 C-22.00916504 7.11367142 -22.80983398 7.11381744 -23.63476562 7.1139679 C-26.26435109 7.1132748 -28.8938645 7.10551076 -31.5234375 7.09765625 C-33.35332195 7.09578993 -35.18320691 7.09436704 -37.01309204 7.09336853 C-41.81676628 7.08956023 -46.62041003 7.0797444 -51.42407227 7.06866455 C-56.33088773 7.05841411 -61.23770815 7.05386314 -66.14453125 7.04882812 C-75.76303419 7.03812056 -85.38151455 7.02106447 -95 7 C-95 6.67 -95 6.34 -95 6 C-66.95 5.67 -38.9 5.34 -10 5 C-10 4.01 -10 3.02 -10 2 C-3.375 0 -3.375 0 0 0 Z " fill="#7B40CE" transform="translate(710,577)"/>
<path d="M0 0 C0.79059814 0.00193359 1.58119629 0.00386719 2.39575195 0.00585938 C17.47465892 0.10481857 32.55368332 0.66432078 47.625 1.125 C47.625 1.455 47.625 1.785 47.625 2.125 C33.44128097 2.72842593 19.25994622 3.23191282 5.0625 3.3125 C3.95793457 3.32539063 2.85336914 3.33828125 1.71533203 3.3515625 C0.18368408 3.35349609 0.18368408 3.35349609 -1.37890625 3.35546875 C-2.72190796 3.36163208 -2.72190796 3.36163208 -4.09204102 3.36791992 C-6.375 3.125 -6.375 3.125 -9.375 1.125 C-6.36882521 -0.37808739 -3.29710184 -0.01986847 0 0 Z " fill="#7B3ADB" transform="translate(498.375,497.875)"/>
<path d="M0 0 C2.97 0 5.94 0 9 0 C8.67 0.66 8.34 1.32 8 2 C8.99 2.33 9.98 2.66 11 3 C11 3.66 11 4.32 11 5 C16.94 4.505 16.94 4.505 23 4 C19.06062859 6.62624761 17.7604332 7.12279062 13.13671875 6.62890625 C12.14978027 6.52852051 11.1628418 6.42813477 10.14599609 6.32470703 C9.10781738 6.21755371 8.06963867 6.11040039 7 6 C4.96519794 5.8176188 2.93003473 5.63922235 0.89453125 5.46484375 C-0.10771484 5.37783203 -1.10996094 5.29082031 -2.14257812 5.20117188 C-3.14740234 5.11416016 -4.15222656 5.02714844 -5.1875 4.9375 C-6.75854492 4.80118164 -6.75854492 4.80118164 -8.36132812 4.66210938 C-10.90753475 4.4412056 -13.45375883 4.22050519 -16 4 C-16 3.67 -16 3.34 -16 3 C-8.08 2.505 -8.08 2.505 0 2 C0 1.34 0 0.68 0 0 Z " fill="#6C35BC" transform="translate(800,449)"/>
<path d="M0 0 C1.53102104 0.0001133 1.53102104 0.0001133 3.0929718 0.00022888 C4.72760628 0.00797081 4.72760628 0.00797081 6.39526367 0.01586914 C7.52018723 0.01728409 8.64511078 0.01869904 9.80412292 0.02015686 C13.39052001 0.02574608 16.97685426 0.03829667 20.56323242 0.05102539 C22.99747631 0.05604178 25.43172118 0.06060445 27.8659668 0.06469727 C33.82757671 0.07571199 39.78915008 0.09243945 45.75073242 0.11352539 C45.75073242 0.44352539 45.75073242 0.77352539 45.75073242 1.11352539 C41.20196097 1.4047955 36.65282575 1.68924122 32.10327148 1.96801758 C30.56344776 2.06325782 29.02372792 2.16019651 27.48413086 2.2590332 C-0.2905414 4.0380645 -0.2905414 4.0380645 -10.24926758 2.11352539 C-10.24926758 1.78352539 -10.24926758 1.45352539 -10.24926758 1.11352539 C-6.76880661 0.32365522 -3.56605904 -0.00884878 0 0 Z " fill="#7737D5" transform="translate(1037.249267578125,420.886474609375)"/>
<path d="M0 0 C0.33 0 0.66 0 1 0 C1.33 2.97 1.66 5.94 2 9 C1.34 9 0.68 9 0 9 C0.33 9.99 0.66 10.98 1 12 C1.66 11.34 2.32 10.68 3 10 C3 12.97 3 15.94 3 19 C2.01 19 1.02 19 0 19 C-1.57543805 25.77591315 -2.32843635 32.36285054 -2.65625 39.3125 C-3 42 -3 42 -5 44 C-4.47675926 29.22295967 -3.10533515 14.48161102 0 0 Z " fill="#10091F" transform="translate(716,534)"/>
<path d="M0 0 C4.80549747 -0.02468447 9.61095818 -0.04285255 14.41650391 -0.05493164 C16.05192711 -0.05996621 17.6873458 -0.06679427 19.32275391 -0.07543945 C21.67090975 -0.08754335 24.01900619 -0.093237 26.3671875 -0.09765625 C27.10057343 -0.10281754 27.83395935 -0.10797882 28.58956909 -0.11329651 C33.77225659 -0.11387171 33.77225659 -0.11387171 36 1 C36 2.32 36 3.64 36 5 C29.73 5 23.46 5 17 5 C17 4.67 17 4.34 17 4 C20.465 3.505 20.465 3.505 24 3 C24 2.34 24 1.68 24 1 C16.08 1 8.16 1 0 1 C0 0.67 0 0.34 0 0 Z " fill="#6733B8" transform="translate(504,576)"/>
<path d="M0 0 C0 0.33 0 0.66 0 1 C-1.49853516 1.18175781 -1.49853516 1.18175781 -3.02734375 1.3671875 C-4.96287109 1.61855469 -4.96287109 1.61855469 -6.9375 1.875 C-8.86916016 2.11863281 -8.86916016 2.11863281 -10.83984375 2.3671875 C-11.88269531 2.57601562 -12.92554688 2.78484375 -14 3 C-14.33 3.66 -14.66 4.32 -15 5 C-25.23 5 -35.46 5 -46 5 C-46 4.67 -46 4.34 -46 4 C-41.05696443 3.42306957 -36.11313283 2.85371533 -31.16845703 2.29101562 C-29.49049008 2.09902709 -27.81274824 1.90505941 -26.13525391 1.70898438 C-17.39157367 0.68828079 -8.82008455 -0.2874162 0 0 Z " fill="#7539CE" transform="translate(848,634)"/>
<path d="M0 0 C5.28 0.66 10.56 1.32 16 2 C16 2.33 16 2.66 16 3 C6.2648233 5.10084738 -3.10386916 5.21105492 -13 5 C-11 3 -11 3 -8.6171875 2.8046875 C-7.71226562 2.82789063 -6.80734375 2.85109375 -5.875 2.875 C-4.50988281 2.90207031 -4.50988281 2.90207031 -3.1171875 2.9296875 C-2.41851563 2.95289063 -1.71984375 2.97609375 -1 3 C-0.67 2.01 -0.34 1.02 0 0 Z " fill="#7533D6" transform="translate(624,496)"/>
<path d="M0 0 C1.87379605 0.07033769 3.75001102 0.0843022 5.625 0.0625 C6.62789062 0.05347656 7.63078125 0.04445313 8.6640625 0.03515625 C9.82035156 0.01775391 9.82035156 0.01775391 11 0 C11 0.66 11 1.32 11 2 C1.98865693 2.6331684 -6.95971078 3.1723784 -16 3 C-16 2.67 -16 2.34 -16 2 C-12.535 1.505 -12.535 1.505 -9 1 C-11.64 0.67 -14.28 0.34 -17 0 C-17 -0.33 -17 -0.66 -17 -1 C-5.36206897 -2.68103448 -5.36206897 -2.68103448 0 0 Z " fill="#6B33C1" transform="translate(692,653)"/>
<path d="M0 0 C0.33 0 0.66 0 1 0 C1.04898437 1.23234375 1.09796875 2.4646875 1.1484375 3.734375 C1.6329031 20.23217298 1.6329031 20.23217298 6 36 C3 35 3 35 1.9375 33.0625 C0.83115833 29.44845053 0.13032996 25.82729798 -0.53515625 22.109375 C-0.79616785 20.02437747 -0.79616785 20.02437747 -2 19 C-2.07244053 16.98035801 -2.08377188 14.95832876 -2.0625 12.9375 C-2.05347656 11.83277344 -2.04445313 10.72804688 -2.03515625 9.58984375 C-2.02355469 8.73519531 -2.01195312 7.88054688 -2 7 C-1.67 7 -1.34 7 -1 7 C-0.67 4.69 -0.34 2.38 0 0 Z " fill="#110B1C" transform="translate(411,532)"/>
<path d="M0 0 C0.33 0 0.66 0 1 0 C1.33 3.3 1.66 6.6 2 10 C2.33 10 2.66 10 3 10 C3.02726927 12.35424675 3.04696719 14.70816962 3.0625 17.0625 C3.07410156 18.37347656 3.08570313 19.68445313 3.09765625 21.03515625 C3.00452335 24.8163519 2.61448726 28.27920707 2 32 C1.67 32 1.34 32 1 32 C0.09183202 28.13792926 -0.11643845 24.56851344 -0.09765625 20.60546875 C-0.09443359 19.40341797 -0.09121094 18.20136719 -0.08789062 16.96289062 C-0.07951172 15.71701172 -0.07113281 14.47113281 -0.0625 13.1875 C-0.05798828 11.92228516 -0.05347656 10.65707031 -0.04882812 9.35351562 C-0.03706251 6.2356289 -0.02062272 3.11783867 0 0 Z " fill="#773AD3" transform="translate(412,524)"/>
<path d="M0 0 C5.94 0.33 11.88 0.66 18 1 C18.33 1.99 18.66 2.98 19 4 C18.33355469 4.04898437 17.66710937 4.09796875 16.98046875 4.1484375 C10.22242201 4.69664269 3.64811086 5.67552143 -3 7 C-0.4345406 4.4345406 1.47686668 4.45953913 5 4 C4 1.5 4 1.5 0 0 Z " fill="#7637D2" transform="translate(776,448)"/>
<path d="M0 0 C-4.558173 1.13500324 -8.95916213 1.18351891 -13.625 1.1875 C-14.388125 1.19974609 -15.15125 1.21199219 -15.9375 1.22460938 C-19.82006322 1.23482665 -21.69678923 1.20214051 -25 -1 C-5.47183099 -3.64788732 -5.47183099 -3.64788732 0 0 Z " fill="#7734DA" transform="translate(909,412)"/>
<path d="M0 0 C0 0.33 0 0.66 0 1 C-0.78246094 1.13277344 -1.56492187 1.26554688 -2.37109375 1.40234375 C-3.38300781 1.57894531 -4.39492188 1.75554688 -5.4375 1.9375 C-6.44683594 2.11152344 -7.45617187 2.28554688 -8.49609375 2.46484375 C-10.9287438 2.74751097 -10.9287438 2.74751097 -12 4 C-11.34 4.33 -10.68 4.66 -10 5 C-10 5.66 -10 6.32 -10 7 C-11.98 7 -13.96 7 -16 7 C-16 6.34 -16 5.68 -16 5 C-18.97 5 -21.94 5 -25 5 C-21.52179367 2.68119578 -18.8416981 2.18192851 -14.75 1.375 C-13.46609375 1.11460937 -12.1821875 0.85421875 -10.859375 0.5859375 C-7.16832367 0.02555521 -3.72587543 -0.1061778 0 0 Z " fill="#0D0819" transform="translate(890,664)"/>
<path d="M0 0 C2.29013653 3.4352048 2.17842973 4.985331 2 9 C1.01 9.495 1.01 9.495 0 10 C0 9.34 0 8.68 0 8 C-0.66 8 -1.32 8 -2 8 C-2.33 11.96 -2.66 15.92 -3 20 C-1.68 20.33 -0.36 20.66 1 21 C-0.65 21 -2.3 21 -4 21 C-4.55779487 7.26171897 -4.55779487 7.26171897 -1 1 C-0.67 0.67 -0.34 0.34 0 0 Z " fill="#763CC9" transform="translate(853,546)"/>
<path d="M0 0 C0 0.99 0 1.98 0 3 C4.37573952 3.59332061 8.57528444 4.13827236 13 4 C13 4.99 13 5.98 13 7 C15.97 7.495 15.97 7.495 19 8 C15.69470655 9.09180878 13.57913968 8.88297902 10.234375 8.00390625 C9.34492187 7.77509766 8.45546875 7.54628906 7.5390625 7.31054688 C6.61867188 7.06369141 5.69828125 6.81683594 4.75 6.5625 C3.81414063 6.31951172 2.87828125 6.07652344 1.9140625 5.82617188 C-0.3929749 5.22587133 -2.69735439 4.61689335 -5 4 C-3.36587557 2.29159719 -2.13093906 1.06546953 0 0 Z " fill="#7739D3" transform="translate(543,685)"/>
<path d="M0 0 C0 1.66666667 0 3.33333333 0 5 C-6.93 4.505 -6.93 4.505 -14 4 C-9.42715431 1.71357715 -5.15703284 0 0 0 Z M1 2 C2.98 2 4.96 2 7 2 C7.33 2.66 7.66 3.32 8 4 C5.36 4 2.72 4 0 4 C0.33 3.34 0.66 2.68 1 2 Z " fill="#6D36C2" transform="translate(595,667)"/>
<path d="M0 0 C0 0.33 0 0.66 0 1 C-8.83802906 2.68343411 -18.17320081 2.6928108 -27 1 C-27 0.67 -27 0.34 -27 0 C-17.9264239 -1.18997719 -9.04389655 -1.60780383 0 0 Z " fill="#7634D8" transform="translate(965,407)"/>
<path d="M0 0 C0.99 0.33 1.98 0.66 3 1 C-3.72197731 4.93481599 -11.40384079 4.90939934 -19 4 C-20.70800781 2.47509766 -20.70800781 2.47509766 -22 1 C-21.40461426 1.00523682 -20.80922852 1.01047363 -20.19580078 1.01586914 C-17.50554453 1.03661999 -14.81530511 1.04965407 -12.125 1.0625 C-11.18785156 1.07087891 -10.25070312 1.07925781 -9.28515625 1.08789062 C-8.38925781 1.09111328 -7.49335937 1.09433594 -6.5703125 1.09765625 C-5.74289551 1.10289307 -4.91547852 1.10812988 -4.06298828 1.11352539 C-1.93588243 1.13352138 -1.93588243 1.13352138 0 0 Z " fill="#7736D5" transform="translate(795,614)"/>
<path d="M0 0 C-0.98080057 2.67491063 -1.57388903 3.78385675 -4.15625 5.09375 C-7.427379 6.1361977 -10.38844769 6.41748168 -13.8125 6.625 C-15.55466797 6.73714844 -15.55466797 6.73714844 -17.33203125 6.8515625 C-18.65267578 6.92503906 -18.65267578 6.92503906 -20 7 C-16.3558226 4.5705484 -14.28758728 4.83820425 -10 5 C-10 4.01 -10 3.02 -10 2 C-3.375 0 -3.375 0 0 0 Z " fill="#7637D1" transform="translate(710,577)"/>
<path d="M0 0 C0.66 0 1.32 0 2 0 C0.8141763 3.37503669 -0.27573689 5.64722731 -3 8 C-3 7.34 -3 6.68 -3 6 C-3.66 6 -4.32 6 -5 6 C-5 6.99 -5 7.98 -5 9 C-8.50776784 10.60355101 -11.14354879 11.22036864 -15 11 C-11.15304854 7.77352458 -7.0859098 5.01313638 -2.890625 2.26953125 C-1.07270473 1.13698792 -1.07270473 1.13698792 0 0 Z " fill="#0C091A" transform="translate(710,478)"/>
<path d="M0 0 C0.33 0.66 0.66 1.32 1 2 C3.01669827 3.13350534 3.01669827 3.13350534 5 4 C3.02 4.99 1.04 5.98 -1 7 C-1 6.34 -1 5.68 -1 5 C-2.65 5.33 -4.3 5.66 -6 6 C-5 4 -5 4 -2 3 C-5.44450737 0.70366176 -7.93812283 0.45983515 -12 0 C-8.11538002 -2.91346498 -4.20709704 -1.73290038 0 0 Z " fill="#7235CA" transform="translate(1097,587)"/>
<path d="M0 0 C2.10388569 -0.05402274 4.20816714 -0.09280256 6.3125 -0.125 C8.07013672 -0.15980469 8.07013672 -0.15980469 9.86328125 -0.1953125 C13 0 13 0 16 2 C12.99686252 3.50156874 10.20932478 3.09281204 6.875 3.0625 C5.59367187 3.05347656 4.31234375 3.04445313 2.9921875 3.03515625 C1.51105469 3.01775391 1.51105469 3.01775391 0 3 C0 2.01 0 1.02 0 0 Z " fill="#742ED8" transform="translate(1035,577)"/>
<path d="M0 0 C0.33 0.99 0.66 1.98 1 3 C-0.77444972 5.24606427 -1.58352485 5.95081002 -4.48046875 6.29296875 C-5.82044922 6.24076172 -5.82044922 6.24076172 -7.1875 6.1875 C-8.53908203 6.14689453 -8.53908203 6.14689453 -9.91796875 6.10546875 C-10.60503906 6.07066406 -11.29210937 6.03585937 -12 6 C-10 4 -10 4 -7 3 C-8.65 2.67 -10.3 2.34 -12 2 C-12 1.67 -12 1.34 -12 1 C-7.915021 0.45533613 -4.1274515 0 0 0 Z " fill="#6C35C1" transform="translate(888,537)"/>
<path d="M0 0 C0.33 0 0.66 0 1 0 C1.67620721 8.32110535 -0.25506495 15.18183678 -3 23 C-3.33 23 -3.66 23 -4 23 C-4.33 20.69 -4.66 18.38 -5 16 C-4.01 15.67 -3.02 15.34 -2 15 C-2.309375 13.88625 -2.309375 13.88625 -2.625 12.75 C-3.06197613 9.54550838 -2.507363 8.76349884 -1 6 C-0.61709538 4.00889599 -0.27395385 2.00899487 0 0 Z " fill="#7A3CD1" transform="translate(1086,521)"/>
<path d="M0 0 C1.98 0 3.96 0 6 0 C5 3 5 3 3.35766602 3.90722656 C2.31630493 4.27025879 2.31630493 4.27025879 1.25390625 4.640625 C0.49916016 4.90617187 -0.25558594 5.17171875 -1.03320312 5.4453125 C-1.82662109 5.71085937 -2.62003906 5.97640625 -3.4375 6.25 C-4.22705078 6.53101563 -5.01660156 6.81203125 -5.83007812 7.1015625 C-10.17992061 8.59971797 -10.17992061 8.59971797 -12 9 C-12.66 8.67 -13.32 8.34 -14 8 C-8.375 5 -8.375 5 -5 5 C-5 4.34 -5 3.68 -5 3 C-3.35 2.67 -1.7 2.34 0 2 C0 1.34 0 0.68 0 0 Z " fill="#7638D2" transform="translate(486,437)"/>
<path d="M0 0 C7.62314474 -0.23576736 14.58569409 0.16282685 22 2 C22 2.33 22 2.66 22 3 C15.24227682 4.57156353 8.70578337 3.60376078 2 2 C1.34 1.34 0.68 0.68 0 0 Z " fill="#7634D9" transform="translate(426,555)"/>
<path d="M0 0 C2 0 2 0 3.47265625 1.390625 C4.25962891 2.31101562 4.25962891 2.31101562 5.0625 3.25 C5.58972656 3.85328125 6.11695313 4.4565625 6.66015625 5.078125 C9.47779986 9.11975956 9.09240301 13.19504355 9 18 C6.56029102 15.56029102 5.78244135 13.32328361 4.5 10.125 C3.11129484 6.67864026 1.71936504 3.29544966 0 0 Z " fill="#7838D4" transform="translate(1063,482)"/>
<path d="M0 0 C5.28 0.33 10.56 0.66 16 1 C16 1.66 16 2.32 16 3 C10.10106757 4.79074734 6.06820868 5.08360869 0 4 C0 3.67 0 3.34 0 3 C1.98 3 3.96 3 6 3 C6 2.34 6 1.68 6 1 C4.02 1 2.04 1 0 1 C0 0.67 0 0.34 0 0 Z " fill="#6B36BF" transform="translate(683,720)"/>
<path d="M0 0 C0 0.66 0 1.32 0 2 C-0.99 2 -1.98 2 -3 2 C-3 2.66 -3 3.32 -3 4 C-2.01 4.33 -1.02 4.66 0 5 C-0.33 5.66 -0.66 6.32 -1 7 C-7.15234375 6.4140625 -7.15234375 6.4140625 -9 6 C-9.33 5.34 -9.66 4.68 -10 4 C-9.34 4 -8.68 4 -8 4 C-7.67 3.01 -7.34 2.02 -7 1 C-4.53721199 -0.231394 -2.7204945 -0.07159196 0 0 Z " fill="#712ED9" transform="translate(552,683)"/>
<path d="M0 0 C0 0.33 0 0.66 0 1 C-3.07617188 1.29296875 -3.07617188 1.29296875 -6.15234375 1.5859375 C-6.76207031 1.72257813 -7.37179687 1.85921875 -8 2 C-8.33 2.66 -8.66 3.32 -9 4 C-8.01 4.33 -7.02 4.66 -6 5 C-10.69023454 4.43393721 -15.34500026 3.81462495 -20 3 C-19.67 2.34 -19.34 1.68 -19 1 C-12.65057468 -0.00784529 -6.41772028 -0.12058347 0 0 Z " fill="#6B34C2" transform="translate(970,544)"/>
<path d="M0 0 C0.66 0 1.32 0 2 0 C2 1.65 2 3.3 2 5 C2.66 5 3.32 5 4 5 C4 4.01 4 3.02 4 2 C4.99 2 5.98 2 7 2 C6.5206753 6.31392226 5.2542015 8.16569547 2 11 C2 9.68 2 8.36 2 7 C1.34 7 0.68 7 0 7 C0 4.69 0 2.38 0 0 Z " fill="#7233D4" transform="translate(1105,497)"/>
<path d="M0 0 C0.33 1.32 0.66 2.64 1 4 C0.30519531 4.36738281 -0.38960937 4.73476563 -1.10546875 5.11328125 C-4.64934279 7.42325583 -7.37960564 10.16195041 -10.3125 13.1875 C-10.86228516 13.74630859 -11.41207031 14.30511719 -11.97851562 14.88085938 C-13.32363696 16.24937412 -14.66246643 17.62406833 -16 19 C-16.66 18.67 -17.32 18.34 -18 18 C-12.06 12.06 -6.12 6.12 0 0 Z " fill="#7D3ED6" transform="translate(831,373)"/>
<path d="M0 0 C0 0.33 0 0.66 0 1 C-5.94 1.495 -5.94 1.495 -12 2 C-12 2.33 -12 2.66 -12 3 C-14.64 3 -17.28 3 -20 3 C-20 2.01 -20 1.02 -20 0 C-13.14975385 -1.37004923 -6.85024615 -1.37004923 0 0 Z " fill="#120E1F" transform="translate(924,438)"/>
<path d="M0 0 C4.48993869 0.58652352 8.22543184 1.7643538 12.375 3.5625 C13.43460938 4.01753906 14.49421875 4.47257812 15.5859375 4.94140625 C16.38257813 5.29074219 17.17921875 5.64007813 18 6 C18 6.33 18 6.66 18 7 C15.36 7 12.72 7 10 7 C9.67 6.34 9.34 5.68 9 5 C7.68 5 6.36 5 5 5 C5 4.01 5 3.02 5 2 C3.35 1.67 1.7 1.34 0 1 C0 0.67 0 0.34 0 0 Z " fill="#7538CF" transform="translate(970,342)"/>
<path d="M0 0 C0.66 0.33 1.32 0.66 2 1 C-0.66267943 5.69138756 -0.66267943 5.69138756 -2.46875 7.34375 C-4.41500242 9.44888017 -5.1801499 11.51281182 -6.1875 14.1875 C-6.53167969 15.08855469 -6.87585938 15.98960937 -7.23046875 16.91796875 C-7.48441406 17.60503906 -7.73835937 18.29210937 -8 19 C-8.66 19 -9.32 19 -10 19 C-9.39817075 14.9633404 -8.09738902 11.93707569 -6.125 8.375 C-5.61195313 7.43398438 -5.09890625 6.49296875 -4.5703125 5.5234375 C-3.20147191 3.32375834 -1.92063427 1.7136198 0 0 Z " fill="#763AD0" transform="translate(750,495)"/>
<path d="M0 0 C6.15222436 0.43173504 9.81917949 1.65405342 15 5 C14.67 5.66 14.34 6.32 14 7 C13.01 6.34 12.02 5.68 11 5 C8.95130926 4.55570562 6.88545707 4.18705805 4.8125 3.875 C3.18248047 3.62363281 3.18248047 3.62363281 1.51953125 3.3671875 C0.27236328 3.18542969 0.27236328 3.18542969 -1 3 C-0.67 2.01 -0.34 1.02 0 0 Z " fill="#7836D6" transform="translate(792,476)"/>
<path d="M0 0 C3.04386724 -0.08226668 5.07175348 0.02391783 8 1 C9.66621616 1.03874921 11.33394172 1.0450286 13 1 C10.05819235 2.61018109 7.34497554 3.51482011 4.0625 4.1875 C3.22847656 4.36667969 2.39445312 4.54585938 1.53515625 4.73046875 C-1.21160365 5.02249715 -3.3345358 4.67232639 -6 4 C-5.67 3.34 -5.34 2.68 -5 2 C-3.35 2 -1.7 2 0 2 C0 1.34 0 0.68 0 0 Z " fill="#110D1C" transform="translate(506,409)"/>
<path d="M0 0 C4.96916636 0.51405169 9.29026351 1.23384882 14 3 C13.67 2.01 13.34 1.02 13 0 C14.65 0.33 16.3 0.66 18 1 C18.33 1.99 18.66 2.98 19 4 C14.06219968 5.19317667 10.91046117 4.6739308 6.125 3.0625 C4.97257813 2.68222656 3.82015625 2.30195313 2.6328125 1.91015625 C1.32957031 1.45962891 1.32957031 1.45962891 0 1 C0 0.67 0 0.34 0 0 Z " fill="#110920" transform="translate(955,336)"/>
<path d="M0 0 C4.95 0 9.9 0 15 0 C15.33 0.66 15.66 1.32 16 2 C10.03654233 3.0006709 5.71271093 3.0662997 0 1 C0 0.67 0 0.34 0 0 Z " fill="#7634D9" transform="translate(971,404)"/>
<path d="M0 0 C7.26 0 14.52 0 22 0 C21.01 1.32 20.02 2.64 19 4 C18.01 4 17.02 4 16 4 C16 3.34 16 2.68 16 2 C10.72 1.67 5.44 1.34 0 1 C0 0.67 0 0.34 0 0 Z " fill="#0B1802" transform="translate(832,351)"/>
<path d="M0 0 C2.64 0 5.28 0 8 0 C8 1.32 8 2.64 8 4 C1.97767819 5.46619907 -2.90367577 6.32528788 -9 5 C-9 4.67 -9 4.34 -9 4 C-8.08476563 3.93941406 -7.16953125 3.87882812 -6.2265625 3.81640625 C-4.44378906 3.69072266 -4.44378906 3.69072266 -2.625 3.5625 C-1.44164062 3.48128906 -0.25828125 3.40007812 0.9609375 3.31640625 C3.91518901 3.18915064 3.91518901 3.18915064 6 2 C3.03 1.505 3.03 1.505 0 1 C0 0.67 0 0.34 0 0 Z " fill="#6D33C7" transform="translate(980,403)"/>
<path d="M0 0 C4.92127034 -0.16682272 8.50343896 -0.24828052 13 2 C13 2.33 13 2.66 13 3 C8.05 3.66 3.1 4.32 -2 5 C-1.67 4.34 -1.34 3.68 -1 3 C0.65 3 2.3 3 4 3 C4 2.34 4 1.68 4 1 C2.68 0.67 1.36 0.34 0 0 Z " fill="#0D081B" transform="translate(623,656)"/>
<path d="M0 0 C0.99386719 0.00902344 1.98773437 0.01804687 3.01171875 0.02734375 C4.15060547 0.04474609 4.15060547 0.04474609 5.3125 0.0625 C5.6425 0.7225 5.9725 1.3825 6.3125 2.0625 C2.29825735 3.40058088 -1.50176024 3.26182094 -5.6875 3.0625 C-6.6775 2.4025 -7.6675 1.7425 -8.6875 1.0625 C-5.53819107 0.01273036 -3.29935544 -0.03881595 0 0 Z " fill="#7733D9" transform="translate(861.6875,562.9375)"/>
<path d="M0 0 C1.67542976 0.28604898 3.34385343 0.61781233 5 1 C5 1.66 5 2.32 5 3 C10.61 3.33 16.22 3.66 22 4 C22 4.33 22 4.66 22 5 C19.20826945 5.02690104 16.41679652 5.04679053 13.625 5.0625 C12.43390625 5.07506836 12.43390625 5.07506836 11.21875 5.08789062 C5.2265625 5.11328125 5.2265625 5.11328125 3 4 C3 3.34 3 2.68 3 2 C1.68 1.67 0.36 1.34 -1 1 C-0.67 0.67 -0.34 0.34 0 0 Z " fill="#211831" transform="translate(963,521)"/>
<path d="M0 0 C1.32 0 2.64 0 4 0 C4 0.66 4 1.32 4 2 C6.64 2 9.28 2 12 2 C11.67 2.66 11.34 3.32 11 4 C8.28553021 4.31241455 5.66090639 4.51336592 2.9375 4.625 C2.17888672 4.66367187 1.42027344 4.70234375 0.63867188 4.7421875 C-1.24047195 4.83673562 -3.12020336 4.91946756 -5 5 C-5 4.67 -5 4.34 -5 4 C-3.5459375 3.814375 -3.5459375 3.814375 -2.0625 3.625 C-0.5465625 3.315625 -0.5465625 3.315625 1 3 C1.33 2.34 1.66 1.68 2 1 C1.34 0.67 0.68 0.34 0 0 Z " fill="#6C34C1" transform="translate(658,459)"/>
<path d="M0 0 C2.97 0.495 2.97 0.495 6 1 C4.54341873 3.91316254 2.63839986 4.09207774 -0.375 5.1875 C-1.35210938 5.55230469 -2.32921875 5.91710937 -3.3359375 6.29296875 C-6 7 -6 7 -9 6 C-8.195625 5.71125 -7.39125 5.4225 -6.5625 5.125 C-3.8673532 4.26737432 -3.8673532 4.26737432 -3 2 C-2.01 2 -1.02 2 0 2 C0 1.34 0 0.68 0 0 Z " fill="#7739D4" transform="translate(766,691)"/>
<path d="M0 0 C2.00720923 0.28674418 4.0085944 0.61866701 6 1 C5.01 1.66 4.02 2.32 3 3 C1.68 2.34 0.36 1.68 -1 1 C-0.67 0.67 -0.34 0.34 0 0 Z M-17 3 C-11.06 3 -5.12 3 1 3 C-3.49919565 5.24959782 -5.34439425 5.07922275 -10.25 4.625 C-11.51328125 4.51414062 -12.7765625 4.40328125 -14.078125 4.2890625 C-15.04234375 4.19367187 -16.0065625 4.09828125 -17 4 C-17 3.67 -17 3.34 -17 3 Z " fill="#191028" transform="translate(463,553)"/>
<path d="M0 0 C0 0.66 0 1.32 0 2 C-1.32 2 -2.64 2 -4 2 C-4 2.66 -4 3.32 -4 4 C-2.02 4 -0.04 4 2 4 C-1.10217621 5.83832664 -3.39408679 6.47446226 -7 6 C-7.66 5.01 -8.32 4.02 -9 3 C-5.55930376 0.70620251 -4.27709699 0 0 0 Z " fill="#6B34BF" transform="translate(825,673)"/>
<path d="M0 0 C2.64 0.66 5.28 1.32 8 2 C8 2.33 8 2.66 8 3 C1.56971459 4.32388229 -4.4294834 5.24794402 -11 5 C-8.60236815 2.60236815 -7.66726502 2.65719414 -4.375 2.375 C-3.55773437 2.30023438 -2.74046875 2.22546875 -1.8984375 2.1484375 C-1.27195312 2.09945313 -0.64546875 2.05046875 0 2 C0 1.34 0 0.68 0 0 Z " fill="#7A3BD3" transform="translate(888,437)"/>
<path d="M0 0 C1.60379341 -0.05416188 3.20811406 -0.09286638 4.8125 -0.125 C5.70582031 -0.14820313 6.59914063 -0.17140625 7.51953125 -0.1953125 C10 0 10 0 13 2 C8.38 2.33 3.76 2.66 -1 3 C-0.67 2.01 -0.34 1.02 0 0 Z " fill="#070F04" transform="translate(741,641)"/>
<path d="M0 0 C-0.99 1.32 -1.98 2.64 -3 4 C-7.62 3.34 -12.24 2.68 -17 2 C-17 1.67 -17 1.34 -17 1 C-11.29309366 0.00749455 -5.78591511 -0.10477512 0 0 Z " fill="#783DCF" transform="translate(1018,401)"/>
<path d="M0 0 C0.66 0 1.32 0 2 0 C2.25 6.625 2.25 6.625 0 10 C-0.70164642 11.98799818 -1.37372872 13.98698517 -2 16 C-3.3805087 12.23331402 -2.59568159 9.55210827 -1.5625 5.75 C-1.27503906 4.67234375 -0.98757813 3.5946875 -0.69140625 2.484375 C-0.46324219 1.66453125 -0.23507812 0.8446875 0 0 Z " fill="#7339C6" transform="translate(1004,489)"/>
<path d="M0 0 C-2.69192661 3.32532111 -6.06546515 4.52454943 -10 6 C-10.99 6 -11.98 6 -13 6 C-13 5.34 -13 4.68 -13 4 C-11.68 4 -10.36 4 -9 4 C-9 3.01 -9 2.02 -9 1 C-5.92677456 0.08941469 -3.19902639 -0.08886184 0 0 Z " fill="#7637D3" transform="translate(686,360)"/>
<path d="M0 0 C0.66 0 1.32 0 2 0 C0.72278474 4.99275057 -1.17330957 7.57611908 -5 11 C-5 9.35 -5 7.7 -5 6 C-4.34 5.67 -3.68 5.34 -3 5 C-2.67 4.01 -2.34 3.02 -2 2 C-1.34 2 -0.68 2 0 2 C0 1.34 0 0.68 0 0 Z " fill="#7637D3" transform="translate(822,588)"/>
<path d="M0 0 C-0.33 0.99 -0.66 1.98 -1 3 C-2.84765625 3.73046875 -2.84765625 3.73046875 -5.0625 4.1875 C-5.79597656 4.34605469 -6.52945313 4.50460937 -7.28515625 4.66796875 C-8.13400391 4.83232422 -8.13400391 4.83232422 -9 5 C-8.67 4.01 -8.34 3.02 -8 2 C-8.99 1.67 -9.98 1.34 -11 1 C-7.26562152 0.12132271 -3.83225427 -0.08912219 0 0 Z " fill="#6A2FBC" transform="translate(908,534)"/>
<path d="M0 0 C-2.59121224 2.59121224 -4.41493567 2.64674398 -8 3.25 C-9.60875 3.53617188 -9.60875 3.53617188 -11.25 3.828125 C-12.61125 3.91320312 -12.61125 3.91320312 -14 4 C-14.66 3.34 -15.32 2.68 -16 2 C-10.64684222 0.55876521 -5.54992333 -0.13214103 0 0 Z " fill="#7938D8" transform="translate(939,650)"/>
<path d="M0 0 C0 0.66 0 1.32 0 2 C-1.98 2.33 -3.96 2.66 -6 3 C-6 3.66 -6 4.32 -6 5 C-8.375 5.625 -8.375 5.625 -11 6 C-11.66 5.34 -12.32 4.68 -13 4 C-11.39850114 3.32694982 -9.79368971 2.66177773 -8.1875 2 C-7.29417969 1.62875 -6.40085937 1.2575 -5.48046875 0.875 C-3 0 -3 0 0 0 Z " fill="#0E091B" transform="translate(1021,627)"/>
<path d="M0 0 C0.99 0.33 1.98 0.66 3 1 C3 1.66 3 2.32 3 3 C3.99 3.33 4.98 3.66 6 4 C6 4.66 6 5.32 6 6 C6.33 6.99 6.66 7.98 7 9 C6.01 9 5.02 9 4 9 C0 3.85714286 0 3.85714286 0 0 Z " fill="#7635D6" transform="translate(1010,557)"/>
<path d="M0 0 C7.38461538 1.35384615 7.38461538 1.35384615 10.5 4.625 C10.995 5.40875 11.49 6.1925 12 7 C7.76570244 5.68938409 3.92592596 4.05643741 0 2 C0 1.34 0 0.68 0 0 Z " fill="#7735D5" transform="translate(1060,457)"/>
<path d="M0 0 C0 0.66 0 1.32 0 2 C-3.37097383 3.49821059 -5.20442119 4 -9 4 C-9 3.34 -9 2.68 -9 2 C-9.99 1.67 -10.98 1.34 -12 1 C-7.915021 0.45533613 -4.1274515 0 0 0 Z " fill="#140E20" transform="translate(902,439)"/>
<path d="M0 0 C0.99 0.33 1.98 0.66 3 1 C3 3.64 3 6.28 3 9 C2.01 9 1.02 9 0 9 C0 6.03 0 3.06 0 0 Z " fill="#7333D4" transform="translate(1107,427)"/>
<path d="M0 0 C4.62 2.31 9.24 4.62 14 7 C11.30234372 8.34882814 9.84835666 7.80338265 7 7 C6.67 6.34 6.34 5.68 6 5 C5.01 5 4.02 5 3 5 C1.3125 3.625 1.3125 3.625 0 2 C0 1.34 0 0.68 0 0 Z " fill="#783BD2" transform="translate(1064,392)"/>
<path d="M0 0 C4.56756196 0.8783773 6.52067674 1.385483 9.4375 5.125 C10.2109375 6.548125 10.2109375 6.548125 11 8 C6.40378078 6.5129879 3.53027653 4.20187872 0 1 C0 0.67 0 0.34 0 0 Z " fill="#763BD2" transform="translate(1021,390)"/>
<path d="M0 0 C2.97 0.495 2.97 0.495 6 1 C6 1.99 6 2.98 6 4 C3.36 4.33 0.72 4.66 -2 5 C-1.34 3.35 -0.68 1.7 0 0 Z " fill="#7535D4" transform="translate(888,658)"/>
<path d="M0 0 C0.8723412 2.99480917 1.10829766 5.63575911 1.0625 8.75 C1.05347656 9.54921875 1.04445313 10.3484375 1.03515625 11.171875 C1.01775391 12.07679688 1.01775391 12.07679688 1 13 C0.67 12.34 0.34 11.68 0 11 C-0.66 11 -1.32 11 -2 11 C-2.33 12.32 -2.66 13.64 -3 15 C-4.57156655 11.8568669 -3.11705576 9.634536 -2.0625 6.375 C-1.68222656 5.18648437 -1.30195312 3.99796875 -0.91015625 2.7734375 C-0.60980469 1.85820313 -0.30945313 0.94296875 0 0 Z " fill="#14082C" transform="translate(831,569)"/>
<path d="M0 0 C6.0546875 -0.1953125 6.0546875 -0.1953125 8 0 C8.66 0.66 9.32 1.32 10 2 C6.32589215 3.17571451 2.83070817 3.07366746 -1 3 C-0.67 2.01 -0.34 1.02 0 0 Z " fill="#7734DA" transform="translate(962,545)"/>
<path d="M0 0 C3.32637022 2.69277589 4.58473125 6.03724749 6 10 C5.67 10.99 5.34 11.98 5 13 C5 12.34 5 11.68 5 11 C4.01 11 3.02 11 2 11 C2.33 9.35 2.66 7.7 3 6 C2.34 6 1.68 6 1 6 C0.67 4.02 0.34 2.04 0 0 Z " fill="#773AD2" transform="translate(823,501)"/>
<path d="M0 0 C-1.40929697 3.47132095 -2.90605083 4.88093274 -6.125 6.75 C-6.84945312 7.17796875 -7.57390625 7.6059375 -8.3203125 8.046875 C-8.87460937 8.36140625 -9.42890625 8.6759375 -10 9 C-7.9020733 4.47543919 -5.37100286 0 0 0 Z " fill="#7B39D9" transform="translate(762,485)"/>
<path d="M0 0 C9.41002278 -0.3690205 9.41002278 -0.3690205 14 2 C14 2.33 14 2.66 14 3 C8.80790596 3.21192221 4.873261 2.5912689 0 1 C0 0.67 0 0.34 0 0 Z " fill="#762FD9" transform="translate(1042,471)"/>
<path d="M0 0 C0.33 0.66 0.66 1.32 1 2 C0.21625 2.2475 -0.5675 2.495 -1.375 2.75 C-4.13350832 3.72822087 -4.13350832 3.72822087 -5 6.0625 C-5.33 6.701875 -5.66 7.34125 -6 8 C-8.625 8.75 -8.625 8.75 -11 9 C-7.56638098 5.36440339 -4.2026393 2.63886654 0 0 Z " fill="#7A3AD7" transform="translate(447,438)"/>
<path d="M0 0 C0.928125 0.2784375 0.928125 0.2784375 1.875 0.5625 C4.04160178 1.23686176 4.04160178 1.23686176 6 0 C6.99 0.66 7.98 1.32 9 2 C8.01 2.495 8.01 2.495 7 3 C9.475 3.99 9.475 3.99 12 5 C12 5.66 12 6.32 12 7 C7.39104317 5.68315519 3.85859765 3.84801255 0 1 C0 0.67 0 0.34 0 0 Z " fill="#0A0615" transform="translate(1012,359)"/>
<path d="M0 0 C1.32 0.33 2.64 0.66 4 1 C3.34 1.825 2.68 2.65 2 3.5 C-0.61234126 7.34492481 -0.31334134 10.45655064 0 15 C-2 13 -2 13 -2.25 9.75 C-2.00879145 6.1318718 -1.31162801 3.36104678 0 0 Z " fill="#773ECC" transform="translate(439,460)"/>
<path d="M0 0 C-0.99 1.32 -1.98 2.64 -3 4 C-5.64 3.67 -8.28 3.34 -11 3 C-4.33333333 -1.44444444 -4.33333333 -1.44444444 0 0 Z " fill="#7338C9" transform="translate(691,340)"/>
<path d="M0 0 C-1.12073862 0.83905565 -2.24674547 1.67107831 -3.375 2.5 C-4.00148438 2.9640625 -4.62796875 3.428125 -5.2734375 3.90625 C-7 5 -7 5 -9 5 C-9 4.34 -9 3.68 -9 3 C-9.66 2.67 -10.32 2.34 -11 2 C-9.54494642 1.47007308 -8.08581873 0.9513211 -6.625 0.4375 C-5.81289062 0.14746094 -5.00078125 -0.14257812 -4.1640625 -0.44140625 C-2 -1 -2 -1 0 0 Z " fill="#7F40D5" transform="translate(1124,577)"/>
<path d="M0 0 C2.33936818 2.12669835 3.80653848 4.06224856 5 7 C5 7.99 5 8.98 5 10 C2 9 2 9 0.8125 7.25 C-0.10819096 4.70039426 -0.14948718 2.69076919 0 0 Z " fill="#7838D6" transform="translate(1077,471)"/>
<path d="M0 0 C0 0.66 0 1.32 0 2 C-4.08443115 3.53166168 -7.79455657 2.63081652 -12 2 C-12 1.67 -12 1.34 -12 1 C-3.96428571 -1.27678571 -3.96428571 -1.27678571 0 0 Z M-6 3 C-4 4 -4 4 -4 4 Z " fill="#140D23" transform="translate(841,675)"/>
<path d="M0 0 C5.28 0.33 10.56 0.66 16 1 C16 1.33 16 1.66 16 2 C13.89807303 2.24887295 11.79326036 2.4734719 9.6875 2.6875 C8.51574219 2.81511719 7.34398437 2.94273437 6.13671875 3.07421875 C3 3 3 3 0 0 Z " fill="#7333D9" transform="translate(688,651)"/>
<path d="M0 0 C0.99 0.33 1.98 0.66 3 1 C2.67 1.99 2.34 2.98 2 4 C4.64 4 7.28 4 10 4 C10 4.33 10 4.66 10 5 C6.37 5 2.74 5 -1 5 C-1.33 4.34 -1.66 3.68 -2 3 C-1.34 3 -0.68 3 0 3 C0 2.01 0 1.02 0 0 Z " fill="#7537D0" transform="translate(425,569)"/>
<path d="M0 0 C0.99 0.33 1.98 0.66 3 1 C-2.14285714 6.57142857 -2.14285714 6.57142857 -6 7 C-6 6.01 -6 5.02 -6 4 C-4.68 4 -3.36 4 -2 4 C-2 3.34 -2 2.68 -2 2 C-1.34 2 -0.68 2 0 2 C0 1.34 0 0.68 0 0 Z " fill="#7637D3" transform="translate(880,353)"/>
<path d="M0 0 C0 0.99 0 1.98 0 3 C-2.64 3 -5.28 3 -8 3 C-8 2.34 -8 1.68 -8 1 C-5.29120665 -0.35439668 -2.99066732 -0.06501451 0 0 Z " fill="#7533D7" transform="translate(621,662)"/>
<path d="M0 0 C-0.33 1.32 -0.66 2.64 -1 4 C-1.66 3.67 -2.32 3.34 -3 3 C-4.53668865 2.77532169 -6.07968054 2.59203195 -7.625 2.4375 C-8.44226563 2.35371094 -9.25953125 2.26992188 -10.1015625 2.18359375 C-10.72804688 2.12300781 -11.35453125 2.06242188 -12 2 C-12 1.67 -12 1.34 -12 1 C-7.93631321 0.22596442 -4.13574827 -0.0984702 0 0 Z " fill="#6634B3" transform="translate(954,617)"/>
<path d="M0 0 C1.11375 0.495 1.11375 0.495 2.25 1 C5.13883312 2.22782871 5.13883312 2.22782871 9 2 C9 3.65 9 5.3 9 7 C2.25 3.375 2.25 3.375 0 0 Z " fill="#7B38D9" transform="translate(753,606)"/>
<path d="M0 0 C3.3 0 6.6 0 10 0 C6.83759418 2.10827055 5.49342531 2.33817465 1.8125 2.625 C0.46091797 2.73714844 0.46091797 2.73714844 -0.91796875 2.8515625 C-1.94857422 2.92503906 -1.94857422 2.92503906 -3 3 C-2.01 2.67 -1.02 2.34 0 2 C0 1.34 0 0.68 0 0 Z " fill="#0B0818" transform="translate(1026,599)"/>
<path d="M0 0 C1.98 0 3.96 0 6 0 C5 3 5 3 2.0625 4.75 C0.5465625 5.36875 0.5465625 5.36875 -1 6 C-1.66 5.67 -2.32 5.34 -3 5 C-2.01 4.67 -1.02 4.34 0 4 C0 2.68 0 1.36 0 0 Z " fill="#7A39D7" transform="translate(1090,592)"/>
<path d="M0 0 C2.33944736 0.28730055 4.6739143 0.61936779 7 1 C5 3 5 3 2.6171875 3.1953125 C1.71226563 3.17210937 0.80734375 3.14890625 -0.125 3.125 C-1.49011719 3.09792969 -1.49011719 3.09792969 -2.8828125 3.0703125 C-3.58148437 3.04710937 -4.28015625 3.02390625 -5 3 C-4.360625 2.690625 -3.72125 2.38125 -3.0625 2.0625 C-1.06389179 1.1654837 -1.06389179 1.1654837 0 0 Z " fill="#7C3BDB" transform="translate(1044,577)"/>
<path d="M0 0 C0.5534764 2.07553648 1 3.84365964 1 6 C0.01 6 -0.98 6 -2 6 C-2 7.32 -2 8.64 -2 10 C-2.66 10 -3.32 10 -4 10 C-3.5205537 5.78087253 -2.83374881 3.20336822 0 0 Z " fill="#110B20" transform="translate(442,461)"/>
<path d="M0 0 C3.3 0.33 6.6 0.66 10 1 C10 1.33 10 1.66 10 2 C8.8553125 2.185625 8.8553125 2.185625 7.6875 2.375 C4.79732864 2.88102792 4.79732864 2.88102792 2 5 C1.34 5 0.68 5 0 5 C0 3.35 0 1.7 0 0 Z " fill="#753AC9" transform="translate(925,331)"/>
<path d="M0 0 C2.875 -0.125 2.875 -0.125 6 0 C6.66 0.66 7.32 1.32 8 2 C5.29120665 3.35439668 2.99066732 3.06501451 0 3 C0 2.01 0 1.02 0 0 Z " fill="#7333D6" transform="translate(657,715)"/>
<path d="M0 0 C6.625 -0.25 6.625 -0.25 10 2 C6.6875 2.6875 6.6875 2.6875 3 3 C1.0625 1.5625 1.0625 1.5625 0 0 Z " fill="#7533DA" transform="translate(713,648)"/>
<path d="M0 0 C3.3 0 6.6 0 10 0 C10 0.66 10 1.32 10 2 C7.25 2.6875 7.25 2.6875 4 3 C2.68 2.01 1.36 1.02 0 0 Z " fill="#7735D8" transform="translate(769,642)"/>
<path d="M0 0 C1.98 0 3.96 0 6 0 C6 0.66 6 1.32 6 2 C7.65 2 9.3 2 11 2 C9.4375 3.125 9.4375 3.125 7 4 C3.25 3.125 3.25 3.125 0 2 C0 1.34 0 0.68 0 0 Z " fill="#0E0919" transform="translate(1100,577)"/>
<path d="M0 0 C0.33 0.99 0.66 1.98 1 3 C-0.875 6.1875 -0.875 6.1875 -3 9 C-3.33 9 -3.66 9 -4 9 C-4 7.35 -4 5.7 -4 4 C-3.34 4 -2.68 4 -2 4 C-2 3.01 -2 2.02 -2 1 C-1.34 0.67 -0.68 0.34 0 0 Z " fill="#7739D2" transform="translate(1077,553)"/>
<path d="M0 0 C0.66 0.99 1.32 1.98 2 3 C1.125 6.6875 1.125 6.6875 0 10 C-0.66 10 -1.32 10 -2 10 C-1.34 6.7 -0.68 3.4 0 0 Z " fill="#130B26" transform="translate(719,522)"/>
<path d="M0 0 C1.25541557 3.76624671 0.37061958 5.37188934 -1 9 C-1.99 8.67 -2.98 8.34 -4 8 C-4 6.35 -4 4.7 -4 3 C-3.01 2.67 -2.02 2.34 -1 2 C-0.67 1.34 -0.34 0.68 0 0 Z " fill="#7635D6" transform="translate(1023,491)"/>
<path d="M0 0 C1.32 0.33 2.64 0.66 4 1 C2.54462432 1.83848804 1.08559627 2.67063934 -0.375 3.5 C-1.59316406 4.19609375 -1.59316406 4.19609375 -2.8359375 4.90625 C-5 6 -5 6 -7 6 C-7 5.01 -7 4.02 -7 3 C-3.535 2.505 -3.535 2.505 0 2 C0 1.34 0 0.68 0 0 Z " fill="#793AD3" transform="translate(457,450)"/>
<path d="M0 0 C-1.26607607 0.53229326 -2.53810412 1.05044544 -3.8125 1.5625 C-4.52019531 1.85253906 -5.22789062 2.14257812 -5.95703125 2.44140625 C-8 3 -8 3 -11 2 C-10.67 1.34 -10.34 0.68 -10 0 C-6.18015204 -0.77811718 -3.73159669 -1.24386556 0 0 Z " fill="#7B3CD4" transform="translate(1002,633)"/>
<path d="M0 0 C-0.99 0.33 -1.98 0.66 -3 1 C-3.33 1.99 -3.66 2.98 -4 4 C-4.33 3.34 -4.66 2.68 -5 2 C-7.31 2.33 -9.62 2.66 -12 3 C-11.67 2.34 -11.34 1.68 -11 1 C-7.29882394 0.15882362 -3.78728969 -0.11139087 0 0 Z " fill="#763AD0" transform="translate(1026,603)"/>
<path d="M0 0 C0 0.66 0 1.32 0 2 C-0.680625 1.855625 -1.36125 1.71125 -2.0625 1.5625 C-5.36273082 0.93054091 -8.67144426 0.45686059 -12 0 C-7.89962722 -3.07527959 -4.53236941 -1.35971082 0 0 Z " fill="#6934BD" transform="translate(1097,587)"/>
<path d="M0 0 C1.09898702 3.29696105 0.87124444 4.40494903 0.0625 7.6875 C-0.22947266 8.89986328 -0.22947266 8.89986328 -0.52734375 10.13671875 C-0.68332031 10.75160156 -0.83929687 11.36648438 -1 12 C-3.1015625 8.390625 -3.1015625 8.390625 -2.1875 4.875 C-1.50754787 3.2288001 -0.79653111 1.59306222 0 0 Z " fill="#7635D3" transform="translate(1008,481)"/>
<path d="M0 0 C0.33 0 0.66 0 1 0 C2.20568053 4.67201205 2.09382426 9.21496292 2 14 C1.67 14 1.34 14 1 14 C1 11.69 1 9.38 1 7 C0.01 6.67 -0.98 6.34 -2 6 C-1.34 4.02 -0.68 2.04 0 0 Z " fill="#793CD3" transform="translate(439,475)"/>
<path d="M0 0 C0 1.32 0 2.64 0 4 C-3 4 -3 4 -5.1875 2 C-5.785625 1.34 -6.38375 0.68 -7 0 C-3.86650268 -1.04449911 -3.01031744 -0.93423645 0 0 Z " fill="#7439CB" transform="translate(1021,385)"/>
<path d="M0 0 C0.99 0 1.98 0 3 0 C1.60667426 3.36720387 0.0210714 4.9859524 -3 7 C-2.67 5.35 -2.34 3.7 -2 2 C-1.34 2 -0.68 2 0 2 C0 1.34 0 0.68 0 0 Z " fill="#130C21" transform="translate(826,374)"/>
<path d="M0 0 C1.43655854 -0.08131463 2.8744483 -0.13933559 4.3125 -0.1875 C5.51326172 -0.23970703 5.51326172 -0.23970703 6.73828125 -0.29296875 C9.47851584 0.06198392 10.29171079 0.89366282 12 3 C3.96428571 2.19642857 3.96428571 2.19642857 0 0 Z " fill="#6B39B2" transform="translate(605,705)"/>
<path d="M0 0 C0 0.99 0 1.98 0 3 C1.32 3.66 2.64 4.32 4 5 C0.79937313 6.60031344 -1.72271806 5.03173691 -5 4 C-3.36587557 2.29159719 -2.13093906 1.06546953 0 0 Z " fill="#6F40B4" transform="translate(543,685)"/>
<path d="M0 0 C0 0.66 0 1.32 0 2 C-3.375 2.625 -3.375 2.625 -7 3 C-7.66 2.34 -8.32 1.68 -9 1 C-5.8035914 -0.06546953 -3.34252724 -0.07427838 0 0 Z " fill="#7733DA" transform="translate(880,663)"/>
<path d="M0 0 C2.64 0.33 5.28 0.66 8 1 C8 1.33 8 1.66 8 2 C3.32798795 3.20568053 -1.21496292 3.09382426 -6 3 C-6 2.67 -6 2.34 -6 2 C-4.02 2 -2.04 2 0 2 C0 1.34 0 0.68 0 0 Z " fill="#04040B" transform="translate(696,647)"/>
<path d="M0 0 C1.98 0 3.96 0 6 0 C6.33 0.66 6.66 1.32 7 2 C4.36 2.33 1.72 2.66 -1 3 C-0.67 2.01 -0.34 1.02 0 0 Z " fill="#7633DC" transform="translate(908,534)"/>
<path d="M0 0 C0.33 0.99 0.66 1.98 1 3 C-1.25 3.6875 -1.25 3.6875 -4 4 C-6.3125 2.5625 -6.3125 2.5625 -8 1 C-5.10765685 0.17361624 -3.11257569 0 0 0 Z " fill="#6732B8" transform="translate(704,450)"/>
<path d="M0 0 C2.64 0 5.28 0 8 0 C5.01353231 1.99097846 2.40312738 2.94124926 -1 4 C-0.67 2.68 -0.34 1.36 0 0 Z " fill="#0C0A1A" transform="translate(473,421)"/>
<path d="M0 0 C0.66 0.33 1.32 0.66 2 1 C1.67 1.99 1.34 2.98 1 4 C0.01 4 -0.98 4 -2 4 C-2 4.66 -2 5.32 -2 6 C-2.99 6 -3.98 6 -5 6 C-5 5.34 -5 4.68 -5 4 C-3.37373596 2.61767557 -1.7074998 1.28062485 0 0 Z " fill="#7836D9" transform="translate(573,484)"/>
<path d="M0 0 C0 0.66 0 1.32 0 2 C-2.91482778 2.80967438 -4.46113217 3.21845993 -7.3125 2.0625 C-7.869375 1.711875 -8.42625 1.36125 -9 1 C-3.375 -1.125 -3.375 -1.125 0 0 Z " fill="#0F0B1A" transform="translate(779,455)"/>
<path d="M0 0 C0 0.66 0 1.32 0 2 C-2.875 2.125 -2.875 2.125 -6 2 C-6.66 1.34 -7.32 0.68 -8 0 C-4.71023192 -1.09658936 -3.28696233 -0.79953138 0 0 Z " fill="#7632D8" transform="translate(700,453)"/>
<path d="M0 0 C0.33 0.66 0.66 1.32 1 2 C-2.81756824 3.37432457 -6.07255329 2.67975039 -10 2 C-10 1.67 -10 1.34 -10 1 C-6.59437148 0.22157062 -3.49234244 -0.09978121 0 0 Z " fill="#732BD8" transform="translate(899,437)"/>
<path d="M0 0 C2.76276177 0.52268466 5.3260876 1.10869587 8 2 C8 2.66 8 3.32 8 4 C5.69 3.67 3.38 3.34 1 3 C0.67 2.01 0.34 1.02 0 0 Z " fill="#7837DA" transform="translate(1083,402)"/>
<path d="M0 0 C0.99 0.33 1.98 0.66 3 1 C-0.08035356 4.08035356 -3.81125605 5.06916801 -8 6 C-5.63055987 3.38114512 -3.16266898 1.58133449 0 0 Z " fill="#773CCE" transform="translate(634,367)"/>
<path d="M0 0 C0 3.16880694 -0.2058242 4.43689172 -2 7 C-4.625 7.75 -4.625 7.75 -7 8 C-6.02133662 6.85373678 -5.04205413 5.70800212 -4.0625 4.5625 C-3.51722656 3.92441406 -2.97195313 3.28632813 -2.41015625 2.62890625 C-1.63204305 1.73008851 -0.84063472 0.84063472 0 0 Z " fill="#7D3DD7" transform="translate(839,365)"/>
<path d="M0 0 C0.99 0 1.98 0 3 0 C3 0.99 3 1.98 3 3 C2.01 3 1.02 3 0 3 C0.33 3.99 0.66 4.98 1 6 C0.34 6 -0.32 6 -1 6 C-1 5.34 -1 4.68 -1 4 C-1.66 4 -2.32 4 -3 4 C-2 2 -2 2 0 0 Z " fill="#6B34C2" transform="translate(731,705)"/>
<path d="M0 0 C0.763125 0.20625 1.52625 0.4125 2.3125 0.625 C1.9825 1.285 1.6525 1.945 1.3125 2.625 C-0.9975 2.295 -3.3075 1.965 -5.6875 1.625 C-2.6875 -0.375 -2.6875 -0.375 0 0 Z " fill="#060C02" transform="translate(905.6875,660.375)"/>
<path d="M0 0 C-0.33 0.99 -0.66 1.98 -1 3 C-2.65 3 -4.3 3 -6 3 C-6.33 2.34 -6.66 1.68 -7 1 C-4.53721199 -0.231394 -2.7204945 -0.07159196 0 0 Z " fill="#7735D9" transform="translate(1054,596)"/>
<path d="M0 0 C0.33 0.66 0.66 1.32 1 2 C1.66 2 2.32 2 3 2 C3 2.99 3 3.98 3 5 C1.35 5.66 -0.3 6.32 -2 7 C-2.33 6.34 -2.66 5.68 -3 5 C-2.01 5 -1.02 5 0 5 C0 3.35 0 1.7 0 0 Z " fill="#7534D5" transform="translate(571,513)"/>
<path d="M0 0 C-0.50603992 2.16874252 -0.99983813 3.99967627 -2 6 C-3.65 6 -5.3 6 -7 6 C-5.68 5.67 -4.36 5.34 -3 5 C-3 4.34 -3 3.68 -3 3 C-3.66 2.34 -4.32 1.68 -5 1 C-2 0 -2 0 0 0 Z " fill="#6932BF" transform="translate(491,418)"/>
<path d="M0 0 C2.64 0 5.28 0 8 0 C8 1.32 8 2.64 8 4 C6.68 3.67 5.36 3.34 4 3 C4.66 2.67 5.32 2.34 6 2 C3.03 1.505 3.03 1.505 0 1 C0 0.67 0 0.34 0 0 Z " fill="#6130AC" transform="translate(980,403)"/>
<path d="M0 0 C0 0.99 0 1.98 0 3 C-1.98 3.99 -1.98 3.99 -4 5 C-4 5.66 -4 6.32 -4 7 C-4.66 7 -5.32 7 -6 7 C-5.8125 5.1875 -5.8125 5.1875 -5 3 C-2.4375 1.25 -2.4375 1.25 0 0 Z " fill="#7130D2" transform="translate(817,389)"/>
<path d="M0 0 C1.65 0 3.3 0 5 0 C3.6875 2 3.6875 2 2 4 C1.01 4 0.02 4 -1 4 C-0.67 2.68 -0.34 1.36 0 0 Z " fill="#080E08" transform="translate(849,351)"/>
</svg>
